<svg width="75" height="99" viewBox="0 0 75 99" fill="none" xmlns="http://www.w3.org/2000/svg">
<rect width="75" height="99" rx="4" fill="#E0E0E0"/>
<circle cx="4" cy="4" r="2" fill="#FF5658"/>
<circle cx="11" cy="4" r="2" fill="#FFBD50"/>
<circle cx="17" cy="4" r="2" fill="#00C852"/>
<rect x="4" y="18" width="65" height="9" rx="4.5" fill="#5B5B5B"/>
<rect x="4" y="18" width="65" height="9" rx="4.5" fill="#5B5B5B"/>
<rect x="4" y="18" width="65" height="9" rx="4.5" fill="#5B5B5B"/>
<rect x="4" y="33" width="30" height="9" rx="4.5" fill="#5B5B5B"/>
<rect x="4" y="33" width="30" height="9" rx="4.5" fill="#5B5B5B"/>
<rect x="4" y="33" width="30" height="9" rx="4.5" fill="#5B5B5B"/>
<rect x="4" y="48" width="22" height="9" rx="4.5" fill="#5B5B5B"/>
<rect x="4" y="48" width="22" height="9" rx="4.5" fill="#5B5B5B"/>
<rect x="4" y="48" width="22" height="9" rx="4.5" fill="#5B5B5B"/>
<rect x="4" y="63" width="43" height="9" rx="4.5" fill="#5B5B5B"/>
<rect x="4" y="63" width="43" height="9" rx="4.5" fill="#5B5B5B"/>
<rect x="4" y="63" width="43" height="9" rx="4.5" fill="#5B5B5B"/>
<rect x="4" y="78" width="28" height="9" rx="4.5" fill="#5B5B5B"/>
<rect x="4" y="78" width="28" height="9" rx="4.5" fill="#5B5B5B"/>
<rect x="4" y="78" width="28" height="9" rx="4.5" fill="#5B5B5B"/>
<rect x="38" y="33" width="31" height="9" rx="4.5" fill="#5B5B5B"/>
<rect x="38" y="33" width="31" height="9" rx="4.5" fill="#5B5B5B"/>
<rect x="38" y="33" width="31" height="9" rx="4.5" fill="#5B5B5B"/>
<rect x="29" y="48" width="15" height="9" rx="4.5" fill="#5B5B5B"/>
<rect x="29" y="48" width="15" height="9" rx="4.5" fill="#5B5B5B"/>
<rect x="29" y="48" width="15" height="9" rx="4.5" fill="#5B5B5B"/>
<rect x="49" y="48" width="21" height="9" rx="4.5" fill="#5B5B5B"/>
<rect x="49" y="48" width="21" height="9" rx="4.5" fill="#5B5B5B"/>
<rect x="49" y="48" width="21" height="9" rx="4.5" fill="#5B5B5B"/>
<rect x="51" y="63" width="19" height="9" rx="4.5" fill="#5B5B5B"/>
<rect x="51" y="63" width="19" height="9" rx="4.5" fill="#5B5B5B"/>
<rect x="51" y="63" width="19" height="9" rx="4.5" fill="#5B5B5B"/>
<rect x="36" y="78" width="34" height="9" rx="4.5" fill="#5B5B5B"/>
<rect x="36" y="78" width="34" height="9" rx="4.5" fill="#5B5B5B"/>
<rect x="36" y="78" width="34" height="9" rx="4.5" fill="#5B5B5B"/>
</svg>
